<?xml version="1.0" encoding="UTF-8"?>
<svg xmlns="http://www.w3.org/2000/svg" id="Layer_3" data-name="Layer 3" viewBox="0 0 64 64" width="512" height="512"><path d="M49,8a1,1,0,0,0-.707.293L43.5,13.086l-.793-.793a1,1,0,0,0-1.414,0l-6,6A1,1,0,0,0,35,19v5H34a1,1,0,0,0-1-1H27.988A11.145,11.145,0,0,0,26.1,16.99,3,3,0,0,0,29,14V4a3,3,0,0,0-3-3H18a3,3,0,0,0-3,3V6H12A3,3,0,0,0,9,9v1.184A3,3,0,0,0,7,13V31a3,3,0,0,0,3,3v4a3,3,0,0,0,3,3h3.124c.162.343.322.687.519,1.015A9.535,9.535,0,0,1,18,46.916V60a3,3,0,0,0,3,3h7a3,3,0,0,0,3-3,4,4,0,0,0-4-4H26V45.692A12.923,12.923,0,0,1,26.884,41H36a3,3,0,0,0,3-3V30h2a3,3,0,0,0,0-6V21.414l4.707-4.707a1,1,0,0,0,0-1.414l-.793-.793,4.5-4.5H56V8ZM20,19v5a1,1,0,0,0,1,1H32v3H17V17h6.559a9.157,9.157,0,0,1,2.429,6H22V19ZM17,34V30h9v4ZM27,9H21V7h6ZM17,4a1,1,0,0,1,1-1h8a1,1,0,0,1,1,1V5H20a1,1,0,0,0-1,1v4a1,1,0,0,0,1,1h7v3a1,1,0,0,1-1,1H17ZM12,8h3v2H11V9A1,1,0,0,1,12,8ZM9,31V13a1,1,0,0,1,1-1h5V32H10A1,1,0,0,1,9,31Zm4,8a1,1,0,0,1-1-1V34h3v2.084A11.525,11.525,0,0,0,15.385,39Zm5.357,1.985A9.535,9.535,0,0,1,17,36.084V36h8.967a12.919,12.919,0,0,1-.9,4.129A14.918,14.918,0,0,0,24,45.692V50H20V46.916A11.527,11.527,0,0,0,18.357,40.985ZM27,58a2,2,0,0,1,2,2,1,1,0,0,1-1,1H21a1,1,0,0,1-1-1V52h4v5a1,1,0,0,0,1,1ZM37,38a1,1,0,0,1-1,1H27.522A14.872,14.872,0,0,0,28,35.308V30h9Zm5-11a1,1,0,0,1-1,1H34V26h7A1,1,0,0,1,42,27Zm-2.707-6.707A1,1,0,0,0,39,21v3H37V19.414l5-5L43.586,16Z"/></svg>
