<svg id="Capa_1" enable-background="new 0 0 512 512" height="512" viewBox="0 0 512 512" width="512" xmlns="http://www.w3.org/2000/svg" fill="gray">
<path d="m512 47.491c0-12.688-4.941-24.616-13.913-33.589-18.521-18.521-48.657-18.521-67.178 0l-173.235 173.235-11.488-11.488-28.753 28.752c-13.157 13.158-34.567 13.157-47.725.001l-22.985-22.984c-17.08-17.879-49.236-18.712-67.175 0l-79.548 79.548 251.022 251.022 79.548-79.549c17.879-17.08 18.712-49.236 0-67.175l-22.98-22.981c-12.427-11.898-13.458-34.764 0-47.728l28.752-28.751-11.491-11.491 173.235-173.233c8.973-8.972 13.914-20.901 13.914-33.589zm-260.978 422.072-208.596-208.597 24.748-24.749 208.596 208.598zm58.336-83.084c6.035 5.877 7.24 17.628-.001 24.748l-12.373 12.374-208.597-208.597 12.374-12.374c5.878-6.035 17.628-7.241 24.749 0l22.985 22.984c30.09 29.212 72.774 22.178 97.691-7.54l47.729 47.73c-32.894 27.532-34.103 70.499-7.539 97.691zm167.516-326.612-173.235 173.234-24.751-24.751 173.234-173.235c6.824-6.823 17.928-6.823 24.751 0 6.036 5.878 7.242 17.63.001 24.752z"/></svg>